<mxfile host="Electron" agent="Mozilla/5.0 (Macintosh; Intel Mac OS X 10_15_7) AppleWebKit/537.36 (KHTML, like Gecko) draw.io/26.0.4 Chrome/128.0.6613.186 Electron/32.2.5 Safari/537.36" version="26.0.4">
  <diagram name="Seite-1" id="laeOrNn4v1Bo0LXbWT5z">
    <mxGraphModel dx="2156" dy="1596" grid="1" gridSize="10" guides="1" tooltips="1" connect="1" arrows="1" fold="1" page="1" pageScale="1" pageWidth="1169" pageHeight="827" math="0" shadow="0">
      <root>
        <mxCell id="0" />
        <mxCell id="1" parent="0" />
        <mxCell id="jqKbG0FSwUbSz0mUDpAZ-18" value="Point-to-Point Channel &lt;br&gt;&lt;font style=&quot;font-size: 16px;&quot;&gt;(guaranteed delivery to next step)&lt;/font&gt;" style="strokeWidth=1;outlineConnect=0;dashed=0;align=center;html=1;fontSize=18;shape=mxgraph.eip.messageChannel;verticalLabelPosition=bottom;labelBackgroundColor=#ffffff;verticalAlign=top;" vertex="1" parent="1">
          <mxGeometry x="686" y="235" width="100" height="20" as="geometry" />
        </mxCell>
        <mxCell id="jqKbG0FSwUbSz0mUDpAZ-21" value="Message Transformer&lt;div&gt;&lt;font style=&quot;font-size: 16px;&quot;&gt;(for&amp;nbsp;&lt;span style=&quot;background-color: transparent; color: light-dark(rgb(0, 0, 0), rgb(255, 255, 255));&quot;&gt;JSON unmarshalling and JQ transformation&lt;/span&gt;&lt;span style=&quot;background-color: transparent; color: light-dark(rgb(0, 0, 0), rgb(255, 255, 255));&quot;&gt;)&lt;/span&gt;&lt;/font&gt;&lt;/div&gt;" style="html=1;strokeWidth=2;outlineConnect=0;dashed=0;align=center;fontSize=18;shape=mxgraph.eip.message_translator;fillColor=#c0f5a9;verticalLabelPosition=bottom;verticalAlign=top;" vertex="1" parent="1">
          <mxGeometry x="1520" y="430" width="150" height="90" as="geometry" />
        </mxCell>
        <mxCell id="jqKbG0FSwUbSz0mUDpAZ-39" value="Content Enricher&lt;br&gt;&lt;font style=&quot;font-size: 16px;&quot;&gt;(adds headers and properties)&lt;/font&gt;" style="html=1;strokeWidth=2;outlineConnect=0;dashed=0;align=center;fontSize=18;fillColor=#c0f5a9;verticalLabelPosition=bottom;verticalAlign=top;shape=mxgraph.eip.content_enricher;" vertex="1" parent="1">
          <mxGeometry x="1180" y="200" width="150" height="90" as="geometry" />
        </mxCell>
        <mxCell id="jqKbG0FSwUbSz0mUDpAZ-43" value="" style="group" vertex="1" connectable="0" parent="1">
          <mxGeometry x="543" y="230" width="28" height="30" as="geometry" />
        </mxCell>
        <mxCell id="jqKbG0FSwUbSz0mUDpAZ-40" value="" style="edgeStyle=orthogonalEdgeStyle;rounded=0;exitX=0;exitY=0.5;endArrow=none;dashed=0;html=1;strokeColor=#808080;strokeWidth=2;" edge="1" source="jqKbG0FSwUbSz0mUDpAZ-42" target="jqKbG0FSwUbSz0mUDpAZ-41" parent="jqKbG0FSwUbSz0mUDpAZ-43">
          <mxGeometry relative="1" as="geometry" />
        </mxCell>
        <mxCell id="jqKbG0FSwUbSz0mUDpAZ-41" value="" style="strokeWidth=2;dashed=0;align=center;fontSize=8;shape=ellipse;fillColor=#808080;strokeColor=none;" vertex="1" parent="jqKbG0FSwUbSz0mUDpAZ-43">
          <mxGeometry width="12" height="12" as="geometry" />
        </mxCell>
        <mxCell id="jqKbG0FSwUbSz0mUDpAZ-42" value="E" style="strokeWidth=2;dashed=0;align=center;fontSize=8;shape=rect;fillColor=#83BEFF;fontStyle=1;whiteSpace=wrap;html=1;" vertex="1" parent="jqKbG0FSwUbSz0mUDpAZ-43">
          <mxGeometry x="16" y="18" width="12" height="12" as="geometry" />
        </mxCell>
        <mxCell id="jqKbG0FSwUbSz0mUDpAZ-44" value="Message Filter&lt;br&gt;&lt;font style=&quot;font-size: 16px;&quot;&gt;(for extracting channel property)&lt;/font&gt;" style="html=1;strokeWidth=2;outlineConnect=0;dashed=0;align=center;fontSize=18;fillColor=#c0f5a9;verticalLabelPosition=bottom;verticalAlign=top;shape=mxgraph.eip.message_filter;" vertex="1" parent="1">
          <mxGeometry x="910" y="200" width="150" height="90" as="geometry" />
        </mxCell>
        <mxCell id="jqKbG0FSwUbSz0mUDpAZ-47" value="Content Filter&lt;br&gt;&lt;font style=&quot;font-size: 16px;&quot;&gt;(removes unwanted HTTP headers)&lt;/font&gt;" style="html=1;strokeWidth=2;outlineConnect=0;dashed=0;align=center;fontSize=18;fillColor=#c0f5a9;verticalLabelPosition=bottom;verticalAlign=top;shape=mxgraph.eip.content_filter;" vertex="1" parent="1">
          <mxGeometry x="1450" y="200" width="150" height="90" as="geometry" />
        </mxCell>
        <mxCell id="jqKbG0FSwUbSz0mUDpAZ-48" value="Message Endpoint&lt;br&gt;&lt;font style=&quot;font-size: 16px;&quot;&gt;(Camel Router)&lt;/font&gt;" style="strokeWidth=2;dashed=0;align=center;fontSize=18;shape=rect;verticalLabelPosition=bottom;verticalAlign=top;fillColor=#c0f5a9;html=1;" vertex="1" parent="1">
          <mxGeometry x="280" y="200" width="150" height="90" as="geometry" />
        </mxCell>
        <mxCell id="jqKbG0FSwUbSz0mUDpAZ-49" value="" style="html=1;strokeWidth=1;dashed=0;align=center;fontSize=8;shape=rect;" vertex="1" parent="jqKbG0FSwUbSz0mUDpAZ-48">
          <mxGeometry x="85" y="25" width="40" height="40" as="geometry" />
        </mxCell>
        <mxCell id="jqKbG0FSwUbSz0mUDpAZ-50" value="Message Endpoint &lt;br&gt;&lt;font style=&quot;font-size: 16px;&quot;&gt;(Chuck Norris API)&lt;/font&gt;" style="strokeWidth=2;dashed=0;align=center;fontSize=18;shape=rect;verticalLabelPosition=bottom;verticalAlign=top;fillColor=#c0f5a9;html=1;" vertex="1" parent="1">
          <mxGeometry x="1990" y="200" width="150" height="90" as="geometry" />
        </mxCell>
        <mxCell id="jqKbG0FSwUbSz0mUDpAZ-51" value="" style="html=1;strokeWidth=1;dashed=0;align=center;fontSize=8;shape=rect" vertex="1" parent="jqKbG0FSwUbSz0mUDpAZ-50">
          <mxGeometry x="25" y="25" width="40" height="40" as="geometry" />
        </mxCell>
        <mxCell id="jqKbG0FSwUbSz0mUDpAZ-58" value="" style="group;fontSize=18;" vertex="1" connectable="0" parent="1">
          <mxGeometry x="1720" y="200" width="150" height="90" as="geometry" />
        </mxCell>
        <mxCell id="jqKbG0FSwUbSz0mUDpAZ-53" value="&lt;font style=&quot;&quot;&gt;&lt;span style=&quot;font-size: 18px;&quot;&gt;Request Reply&lt;/span&gt;&lt;br&gt;&lt;font style=&quot;font-size: 16px;&quot;&gt;(for the external service call)&lt;/font&gt;&lt;br&gt;&lt;/font&gt;" style="strokeWidth=2;dashed=0;align=center;fontSize=8;shape=rect;fillColor=#c0f5a9;verticalLabelPosition=bottom;verticalAlign=top;html=1;" vertex="1" parent="jqKbG0FSwUbSz0mUDpAZ-58">
          <mxGeometry width="150" height="90" as="geometry" />
        </mxCell>
        <mxCell id="jqKbG0FSwUbSz0mUDpAZ-54" value="" style="html=1;strokeWidth=1;dashed=0;align=center;fontSize=8;shape=rect;" vertex="1" parent="jqKbG0FSwUbSz0mUDpAZ-58">
          <mxGeometry x="10" y="12" width="28" height="28" as="geometry" />
        </mxCell>
        <mxCell id="jqKbG0FSwUbSz0mUDpAZ-55" value="" style="html=1;strokeWidth=1;dashed=0;align=center;fontSize=8;shape=rect;" vertex="1" parent="jqKbG0FSwUbSz0mUDpAZ-58">
          <mxGeometry x="110" y="50" width="30" height="30" as="geometry" />
        </mxCell>
        <mxCell id="jqKbG0FSwUbSz0mUDpAZ-56" value="" style="edgeStyle=none;html=1;strokeColor=#808080;endArrow=block;endSize=10;dashed=0;verticalAlign=bottom;strokeWidth=2;rounded=0;" edge="1" parent="jqKbG0FSwUbSz0mUDpAZ-58">
          <mxGeometry width="160" relative="1" as="geometry">
            <mxPoint x="50" y="25.230000000000018" as="sourcePoint" />
            <mxPoint x="140" y="25.230000000000018" as="targetPoint" />
          </mxGeometry>
        </mxCell>
        <mxCell id="jqKbG0FSwUbSz0mUDpAZ-57" value="" style="edgeStyle=none;html=1;strokeColor=#808080;endArrow=block;endSize=10;dashed=0;verticalAlign=bottom;strokeWidth=2;rounded=0;" edge="1" parent="jqKbG0FSwUbSz0mUDpAZ-58">
          <mxGeometry width="160" relative="1" as="geometry">
            <mxPoint x="100" y="63.23000000000002" as="sourcePoint" />
            <mxPoint x="10" y="63.23000000000002" as="targetPoint" />
          </mxGeometry>
        </mxCell>
        <mxCell id="jqKbG0FSwUbSz0mUDpAZ-60" value="" style="edgeStyle=none;html=1;strokeColor=#808080;endArrow=block;endSize=10;dashed=0;verticalAlign=bottom;strokeWidth=2;rounded=0;" edge="1" parent="1">
          <mxGeometry width="160" relative="1" as="geometry">
            <mxPoint x="583" y="244" as="sourcePoint" />
            <mxPoint x="673" y="244" as="targetPoint" />
          </mxGeometry>
        </mxCell>
        <mxCell id="jqKbG0FSwUbSz0mUDpAZ-61" value="" style="edgeStyle=none;html=1;strokeColor=#808080;endArrow=block;endSize=10;dashed=0;verticalAlign=bottom;strokeWidth=2;rounded=0;" edge="1" parent="1">
          <mxGeometry width="160" relative="1" as="geometry">
            <mxPoint x="794" y="244.58" as="sourcePoint" />
            <mxPoint x="884" y="244.58" as="targetPoint" />
          </mxGeometry>
        </mxCell>
        <mxCell id="jqKbG0FSwUbSz0mUDpAZ-62" value="" style="edgeStyle=none;html=1;strokeColor=#808080;endArrow=block;endSize=10;dashed=0;verticalAlign=bottom;strokeWidth=2;rounded=0;" edge="1" parent="1">
          <mxGeometry width="160" relative="1" as="geometry">
            <mxPoint x="1070" y="244.58" as="sourcePoint" />
            <mxPoint x="1160" y="244.58" as="targetPoint" />
          </mxGeometry>
        </mxCell>
        <mxCell id="jqKbG0FSwUbSz0mUDpAZ-63" value="" style="edgeStyle=none;html=1;strokeColor=#808080;endArrow=block;endSize=10;dashed=0;verticalAlign=bottom;strokeWidth=2;rounded=0;" edge="1" parent="1">
          <mxGeometry width="160" relative="1" as="geometry">
            <mxPoint x="1340" y="244.58" as="sourcePoint" />
            <mxPoint x="1430" y="244.58" as="targetPoint" />
          </mxGeometry>
        </mxCell>
        <mxCell id="jqKbG0FSwUbSz0mUDpAZ-64" value="" style="edgeStyle=none;html=1;strokeColor=#808080;endArrow=block;endSize=10;dashed=0;verticalAlign=bottom;strokeWidth=2;rounded=0;" edge="1" parent="1">
          <mxGeometry width="160" relative="1" as="geometry">
            <mxPoint x="1610" y="244.58000000000004" as="sourcePoint" />
            <mxPoint x="1700" y="244.58000000000004" as="targetPoint" />
          </mxGeometry>
        </mxCell>
        <mxCell id="jqKbG0FSwUbSz0mUDpAZ-65" value="" style="edgeStyle=none;html=1;strokeColor=#808080;endArrow=block;endSize=10;dashed=0;verticalAlign=bottom;strokeWidth=2;rounded=0;entryX=0;entryY=0.5;entryDx=0;entryDy=0;" edge="1" parent="1" target="jqKbG0FSwUbSz0mUDpAZ-51">
          <mxGeometry width="160" relative="1" as="geometry">
            <mxPoint x="1880" y="244.58000000000004" as="sourcePoint" />
            <mxPoint x="1970" y="244.58000000000004" as="targetPoint" />
          </mxGeometry>
        </mxCell>
        <mxCell id="jqKbG0FSwUbSz0mUDpAZ-66" value="" style="edgeStyle=none;html=1;strokeColor=#808080;endArrow=block;endSize=10;dashed=0;verticalAlign=bottom;strokeWidth=2;rounded=0;" edge="1" parent="1">
          <mxGeometry width="160" relative="1" as="geometry">
            <mxPoint x="440" y="244.71" as="sourcePoint" />
            <mxPoint x="530" y="244.71" as="targetPoint" />
          </mxGeometry>
        </mxCell>
        <mxCell id="jqKbG0FSwUbSz0mUDpAZ-67" value="" style="edgeStyle=none;html=1;strokeColor=#808080;endArrow=block;endSize=10;dashed=0;verticalAlign=bottom;strokeWidth=2;rounded=0;" edge="1" parent="1">
          <mxGeometry width="160" relative="1" as="geometry">
            <mxPoint x="1350" y="470" as="sourcePoint" />
            <mxPoint x="360" y="350" as="targetPoint" />
            <Array as="points">
              <mxPoint x="360" y="470" />
            </Array>
          </mxGeometry>
        </mxCell>
        <mxCell id="jqKbG0FSwUbSz0mUDpAZ-68" value="" style="edgeStyle=none;html=1;strokeColor=#808080;endArrow=block;endSize=10;dashed=0;verticalAlign=bottom;strokeWidth=2;rounded=0;" edge="1" parent="1">
          <mxGeometry width="160" relative="1" as="geometry">
            <mxPoint x="1780" y="469.47" as="sourcePoint" />
            <mxPoint x="1690" y="469.47" as="targetPoint" />
          </mxGeometry>
        </mxCell>
        <mxCell id="jqKbG0FSwUbSz0mUDpAZ-69" value="" style="edgeStyle=none;html=1;strokeColor=#808080;endArrow=block;endSize=10;dashed=0;verticalAlign=bottom;strokeWidth=2;rounded=0;" edge="1" parent="1">
          <mxGeometry width="160" relative="1" as="geometry">
            <mxPoint x="1500" y="469.47" as="sourcePoint" />
            <mxPoint x="1410" y="469.47" as="targetPoint" />
          </mxGeometry>
        </mxCell>
        <mxCell id="jqKbG0FSwUbSz0mUDpAZ-70" value="" style="edgeStyle=none;html=1;strokeColor=#808080;endArrow=block;endSize=10;dashed=0;verticalAlign=bottom;strokeWidth=2;rounded=0;" edge="1" parent="1">
          <mxGeometry width="160" relative="1" as="geometry">
            <mxPoint x="2070" y="350" as="sourcePoint" />
            <mxPoint x="1830" y="470" as="targetPoint" />
            <Array as="points">
              <mxPoint x="2070" y="469" />
            </Array>
          </mxGeometry>
        </mxCell>
        <mxCell id="jqKbG0FSwUbSz0mUDpAZ-71" value="" style="edgeStyle=orthogonalEdgeStyle;rounded=0;exitX=0;exitY=0.5;endArrow=none;dashed=0;html=1;strokeColor=#808080;strokeWidth=2;" edge="1" source="jqKbG0FSwUbSz0mUDpAZ-73" target="jqKbG0FSwUbSz0mUDpAZ-72" parent="1">
          <mxGeometry relative="1" as="geometry" />
        </mxCell>
        <mxCell id="jqKbG0FSwUbSz0mUDpAZ-72" value="" style="strokeWidth=2;dashed=0;align=center;fontSize=8;shape=ellipse;fillColor=#808080;strokeColor=none;" vertex="1" parent="1">
          <mxGeometry x="1790" y="461" width="12" height="12" as="geometry" />
        </mxCell>
        <mxCell id="jqKbG0FSwUbSz0mUDpAZ-73" value="" style="strokeWidth=2;dashed=0;align=center;fontSize=8;shape=rect;fillColor=#ff9900;strokeColor=#000000;fontStyle=1;html=1;whiteSpace=wrap;" vertex="1" parent="1">
          <mxGeometry x="1806" y="479" width="12" height="12" as="geometry" />
        </mxCell>
        <mxCell id="jqKbG0FSwUbSz0mUDpAZ-75" value="" style="edgeStyle=orthogonalEdgeStyle;rounded=0;exitX=0;exitY=0.5;endArrow=none;dashed=0;html=1;strokeColor=#808080;strokeWidth=2;" edge="1" source="jqKbG0FSwUbSz0mUDpAZ-77" target="jqKbG0FSwUbSz0mUDpAZ-76" parent="1">
          <mxGeometry relative="1" as="geometry" />
        </mxCell>
        <mxCell id="jqKbG0FSwUbSz0mUDpAZ-76" value="" style="strokeWidth=2;dashed=0;align=center;fontSize=8;shape=ellipse;fillColor=#808080;strokeColor=none;" vertex="1" parent="1">
          <mxGeometry x="1370" y="461" width="12" height="12" as="geometry" />
        </mxCell>
        <mxCell id="jqKbG0FSwUbSz0mUDpAZ-77" value="" style="strokeWidth=2;dashed=0;align=center;fontSize=8;shape=rect;fillColor=#80FF6C;fontStyle=1;whiteSpace=wrap;html=1;" vertex="1" parent="1">
          <mxGeometry x="1386" y="479" width="12" height="12" as="geometry" />
        </mxCell>
        <mxCell id="jqKbG0FSwUbSz0mUDpAZ-78" value="Actor" style="shape=umlActor;verticalLabelPosition=bottom;verticalAlign=top;html=1;outlineConnect=0;fontSize=18;" vertex="1" parent="1">
          <mxGeometry x="70" y="180" width="67.5" height="135" as="geometry" />
        </mxCell>
        <mxCell id="jqKbG0FSwUbSz0mUDpAZ-79" value="" style="edgeStyle=none;html=1;strokeColor=#808080;endArrow=block;endSize=10;dashed=0;verticalAlign=bottom;strokeWidth=2;rounded=0;" edge="1" parent="1">
          <mxGeometry width="160" relative="1" as="geometry">
            <mxPoint x="160" y="243.89000000000001" as="sourcePoint" />
            <mxPoint x="250" y="243.89000000000001" as="targetPoint" />
          </mxGeometry>
        </mxCell>
      </root>
    </mxGraphModel>
  </diagram>
</mxfile>
